<svg xmlns="http://www.w3.org/2000/svg" xmlns:xlink="http://www.w3.org/1999/xlink" width="500" zoomAndPan="magnify" viewBox="0 0 375 374.999991" height="500" preserveAspectRatio="xMidYMid meet" version="1.0"><defs><clipPath id="923e4713ba"><path d="M 9.855469 9.855469 L 365.144531 9.855469 L 365.144531 365.144531 L 9.855469 365.144531 Z M 9.855469 9.855469 " clip-rule="nonzero"/></clipPath><clipPath id="79bada4c73"><path d="M 187.5 9.855469 C 89.390625 9.855469 9.855469 89.390625 9.855469 187.5 C 9.855469 285.609375 89.390625 365.144531 187.5 365.144531 C 285.609375 365.144531 365.144531 285.609375 365.144531 187.5 C 365.144531 89.390625 285.609375 9.855469 187.5 9.855469 Z M 187.5 9.855469 " clip-rule="nonzero"/></clipPath></defs><g clip-path="url(#923e4713ba)"><g clip-path="url(#79bada4c73)"><path fill="#ffffff" d="M 9.855469 9.855469 L 365.144531 9.855469 L 365.144531 365.144531 L 9.855469 365.144531 Z M 9.855469 9.855469 " fill-opacity="1" fill-rule="nonzero"/></g></g><path stroke-linecap="butt" transform="matrix(0.3125, 0, 0, 0.3125, 0.0000045, 0)" fill="none" stroke-linejoin="miter" d="M 1122.400131 596.000077 C 1122.400131 604.625078 1122.187631 613.23758 1121.762631 621.850081 C 1121.337631 630.462582 1120.712631 639.050083 1119.862631 647.637584 C 1119.012631 656.212585 1117.962631 664.775086 1116.70013 673.300087 C 1115.43763 681.825088 1113.96263 690.31259 1112.27513 698.775091 C 1110.60013 707.225092 1108.712629 715.637593 1106.612629 724.000094 C 1104.512629 732.362595 1102.212629 740.675096 1099.712628 748.925097 C 1097.212628 757.175098 1094.512628 765.350099 1091.600127 773.4751 C 1088.700127 781.587601 1085.600126 789.637602 1082.300126 797.600103 C 1079.000126 805.562604 1075.512625 813.437605 1071.825125 821.237606 C 1068.137624 829.025107 1064.262624 836.725108 1060.200123 844.337609 C 1056.137623 851.93761 1051.887622 859.437611 1047.450121 866.825112 C 1043.025121 874.225113 1038.41262 881.500114 1033.61262 888.675115 C 1028.825119 895.837616 1023.862618 902.887617 1018.725118 909.812618 C 1013.587617 916.737619 1008.287616 923.53762 1002.825116 930.200121 C 997.350115 936.862621 991.725114 943.387622 985.937613 949.775123 C 980.137613 956.162624 974.200112 962.412625 968.100111 968.500126 C 962.01261 974.600126 955.76261 980.537627 949.375109 986.337628 C 942.987608 992.125129 936.462607 997.750129 929.800106 1003.22513 C 923.137605 1008.687631 916.337604 1014.000131 909.412604 1019.125132 C 902.487603 1024.262633 895.437602 1029.225133 888.275101 1034.012634 C 881.1001 1038.812635 873.825099 1043.425135 866.425098 1047.850136 C 859.037597 1052.287636 851.537596 1056.537637 843.937595 1060.600138 C 836.325094 1064.662638 828.625093 1068.537639 820.837592 1072.225139 C 813.037591 1075.91264 805.16259 1079.40014 797.200089 1082.70014 C 789.237588 1086.000141 781.187587 1089.100141 773.075086 1092.000142 C 764.950085 1094.912642 756.775084 1097.612642 748.525083 1100.112643 C 740.275082 1102.612643 731.962581 1104.912643 723.600079 1107.012644 C 715.237578 1109.112644 706.825077 1111.000144 698.375076 1112.675144 C 689.912575 1114.362644 681.425074 1115.837645 672.900073 1117.100145 C 664.375072 1118.362645 655.812571 1119.412645 647.23757 1120.262645 C 638.650068 1121.112645 630.062567 1121.737645 621.450066 1122.162646 C 612.837565 1122.587646 604.225064 1122.800146 595.600063 1122.800146 C 586.975062 1122.800146 578.362561 1122.587646 569.750059 1122.162646 C 561.137558 1121.737645 552.550057 1121.112645 543.962556 1120.262645 C 535.387555 1119.412645 526.825054 1118.362645 518.300053 1117.100145 C 509.775052 1115.837645 501.287551 1114.362644 492.82505 1112.675144 C 484.375048 1111.000144 475.962547 1109.112644 467.600046 1107.012644 C 459.237545 1104.912643 450.925044 1102.612643 442.675043 1100.112643 C 434.425042 1097.612642 426.250041 1094.912642 418.12504 1092.000142 C 410.012539 1089.100141 401.962538 1086.000141 394.000037 1082.70014 C 386.037536 1079.40014 378.162535 1075.91264 370.362534 1072.225139 C 362.575033 1068.537639 354.875032 1064.662638 347.262531 1060.600138 C 339.66253 1056.537637 332.162529 1052.287636 324.775028 1047.850136 C 317.375027 1043.425135 310.100026 1038.812635 302.925025 1034.012634 C 295.762524 1029.225133 288.712523 1024.262633 281.787522 1019.125132 C 274.862521 1014.000131 268.06252 1008.687631 261.400019 1003.22513 C 254.737519 997.750129 248.212518 992.125129 241.825017 986.337628 C 235.437516 980.537627 229.187515 974.600126 223.100015 968.500126 C 217.000014 962.412625 211.062513 956.162624 205.262512 949.775123 C 199.475011 943.387622 193.850011 936.862621 188.37501 930.200121 C 182.912509 923.53762 177.600009 916.737619 172.475008 909.812618 C 167.337507 902.887617 162.375007 895.837616 157.587506 888.675115 C 152.787505 881.500114 148.175005 874.225113 143.750004 866.825112 C 139.312504 859.437611 135.062503 851.93761 131.000003 844.337609 C 126.937502 836.725108 123.062502 829.025107 119.375001 821.237606 C 115.687501 813.437605 112.2 805.562604 108.9 797.600103 C 105.599999 789.637602 102.499999 781.587601 99.599999 773.4751 C 96.687498 765.350099 93.987498 757.175098 91.487497 748.925097 C 88.974997 740.675096 86.687497 732.362595 84.587497 724.000094 C 82.487496 715.637593 80.599996 707.225092 78.924996 698.775091 C 77.237496 690.31259 75.762495 681.825088 74.499995 673.300087 C 73.237495 664.775086 72.187495 656.212585 71.337495 647.637584 C 70.487495 639.050083 69.862495 630.462582 69.437495 621.850081 C 69.012495 613.23758 68.799995 604.625078 68.799995 596.000077 C 68.799995 587.375076 69.012495 578.762575 69.437495 570.150074 C 69.862495 561.537573 70.487495 552.950072 71.337495 544.362571 C 72.187495 535.787569 73.237495 527.225068 74.499995 518.700067 C 75.762495 510.175066 77.237496 501.687565 78.924996 493.225064 C 80.599996 484.775063 82.487496 476.362562 84.587497 468.000061 C 86.687497 459.63756 88.974997 451.325059 91.487497 443.075057 C 93.987498 434.825056 96.687498 426.650055 99.599999 418.525054 C 102.499999 410.412553 105.599999 402.362552 108.9 394.400051 C 112.2 386.43755 115.687501 378.562549 119.375001 370.762548 C 123.062502 362.975047 126.937502 355.275046 131.000003 347.662545 C 135.062503 340.062544 139.312504 332.562543 143.750004 325.175042 C 148.175005 317.775041 152.787505 310.50004 157.587506 303.325039 C 162.375007 296.162538 167.337507 289.112537 172.475008 282.187537 C 177.600009 275.262536 182.912509 268.462535 188.37501 261.800034 C 193.850011 255.137533 199.475011 248.612532 205.262512 242.225031 C 211.062513 235.837531 217.000014 229.58753 223.100015 223.500029 C 229.187515 217.400028 235.437516 211.462527 241.825017 205.662527 C 248.212518 199.875026 254.737519 194.250025 261.400019 188.775024 C 268.06252 183.312524 274.862521 178.000023 281.787522 172.875022 C 288.712523 167.737522 295.762524 162.775021 302.925025 157.98752 C 310.100026 153.18752 317.375027 148.575019 324.775028 144.150019 C 332.162529 139.712518 339.66253 135.462518 347.262531 131.400017 C 354.875032 127.337517 362.575033 123.462516 370.362534 119.775016 C 378.162535 116.087515 386.037536 112.600015 394.000037 109.300014 C 401.962538 106.000014 410.012539 102.900013 418.12504 100.000013 C 426.250041 97.087513 434.425042 94.387512 442.675043 91.887512 C 450.925044 89.375012 459.237545 87.087511 467.600046 84.987511 C 475.962547 82.887511 484.375048 81.000011 492.82505 79.32501 C 501.287551 77.63751 509.775052 76.16251 518.300053 74.90001 C 526.825054 73.63751 535.387555 72.587509 543.962556 71.737509 C 552.550057 70.887509 561.137558 70.262509 569.750059 69.837509 C 578.362561 69.412509 586.975062 69.200009 595.600063 69.200009 C 604.225064 69.200009 612.837565 69.412509 621.450066 69.837509 C 630.062567 70.262509 638.650068 70.887509 647.23757 71.737509 C 655.812571 72.587509 664.375072 73.63751 672.900073 74.90001 C 681.425074 76.16251 689.912575 77.63751 698.375076 79.32501 C 706.825077 81.000011 715.237578 82.887511 723.600079 84.987511 C 731.962581 87.087511 740.275082 89.375012 748.525083 91.887512 C 756.775084 94.387512 764.950085 97.087513 773.075086 100.000013 C 781.187587 102.900013 789.237588 106.000014 797.200089 109.300014 C 805.16259 112.600015 813.037591 116.087515 820.837592 119.775016 C 828.625093 123.462516 836.325094 127.337517 843.937595 131.400017 C 851.537596 135.462518 859.037597 139.712518 866.425098 144.150019 C 873.825099 148.575019 881.1001 153.18752 888.275101 157.98752 C 895.437602 162.775021 902.487603 167.737522 909.412604 172.875022 C 916.337604 178.000023 923.137605 183.312524 929.800106 188.775024 C 936.462607 194.250025 942.987608 199.875026 949.375109 205.662527 C 955.76261 211.462527 962.01261 217.400028 968.100111 223.500029 C 974.200112 229.58753 980.137613 235.837531 985.937613 242.225031 C 991.725114 248.612532 997.350115 255.137533 1002.825116 261.800034 C 1008.287616 268.462535 1013.587617 275.262536 1018.725118 282.187537 C 1023.862618 289.112537 1028.825119 296.162538 1033.61262 303.325039 C 1038.41262 310.50004 1043.025121 317.775041 1047.450121 325.175042 C 1051.887622 332.562543 1056.137623 340.062544 1060.200123 347.662545 C 1064.262624 355.275046 1068.137624 362.975047 1071.825125 370.762548 C 1075.512625 378.562549 1079.000126 386.43755 1082.300126 394.400051 C 1085.600126 402.362552 1088.700127 410.412553 1091.600127 418.525054 C 1094.512628 426.650055 1097.212628 434.825056 1099.712628 443.075057 C 1102.212629 451.325059 1104.512629 459.63756 1106.612629 468.000061 C 1108.712629 476.362562 1110.60013 484.775063 1112.27513 493.225064 C 1113.96263 501.687565 1115.43763 510.175066 1116.70013 518.700067 C 1117.962631 527.225068 1119.012631 535.787569 1119.862631 544.362571 C 1120.712631 552.950072 1121.337631 561.537573 1121.762631 570.150074 C 1122.187631 578.762575 1122.400131 587.375076 1122.400131 596.000077 Z M 1122.400131 596.000077 " stroke="#231f20" stroke-width="15" stroke-opacity="1" stroke-miterlimit="10"/><path fill="#231f20" d="M 136.28125 182.96875 C 135.65625 180.40625 135.09375 177.8125 134.59375 175.25 C 134.09375 172.6875 134.125 172.75 133.90625 171.46875 C 133.6875 170.1875 133.71875 170.25 133.625 169.65625 C 133.53125 169.0625 133.53125 169.09375 133.5 168.8125 C 133.46875 168.53125 133.46875 168.5 133.4375 168.34375 C 133.375 167.84375 133.5 168.78125 133.4375 168.21875 C 132.8125 163.375 132.5 158.53125 132.59375 153.65625 C 132.6875 148.78125 132.8125 148.71875 133.0625 146.28125 C 133.3125 143.84375 133.1875 145.0625 133.28125 144.46875 C 133.375 143.875 133.3125 144.21875 133.34375 144.09375 C 133.40625 143.65625 133.34375 144.0625 133.34375 144.125 C 133.375 143.75 133.4375 143.34375 133.5 142.96875 C 133.6875 141.71875 133.90625 140.5 134.125 139.25 C 135 134.65625 136.125 130.0625 137.875 125.71875 C 139.625 121.375 137.9375 125.53125 138 125.4375 C 138.0625 125.34375 138.1875 124.90625 138.0625 125.3125 C 137.9375 125.71875 138.09375 125.21875 138.125 125.1875 C 138.15625 125.09375 138.21875 125 138.25 124.90625 C 138.4375 124.4375 138.65625 124 138.875 123.53125 C 139.3125 122.625 139.75 121.75 140.25 120.875 C 141.15625 119.21875 142.15625 117.625 143.25 116.09375 C 144.34375 114.5625 143.78125 115.34375 144.0625 114.96875 C 144.34375 114.59375 144.1875 114.8125 144.25 114.75 C 143.875 115.25 144.09375 114.9375 144.1875 114.8125 C 144.34375 114.59375 144.53125 114.40625 144.6875 114.1875 C 145.25 113.46875 145.875 112.78125 146.46875 112.09375 C 147.71875 110.6875 149.0625 109.375 150.46875 108.125 C 151.875 106.875 151.90625 106.90625 152.625 106.3125 C 153.34375 105.71875 153 106.0625 153.125 105.90625 C 152.75 106.3125 152.90625 106.0625 153.0625 105.96875 C 153.21875 105.875 153.25 105.8125 153.34375 105.75 C 153.71875 105.46875 154.125 105.15625 154.53125 104.875 C 156.09375 103.78125 157.6875 102.75 159.34375 101.78125 C 161 100.8125 162.75 99.9375 164.5 99.15625 C 166.25 98.375 165.3125 98.78125 165.71875 98.625 C 166.125 98.46875 165.9375 98.5625 166 98.5 C 165.625 98.78125 165.71875 98.625 165.9375 98.53125 C 166.15625 98.4375 166.4375 98.3125 166.6875 98.21875 C 167.59375 97.84375 168.53125 97.5 169.4375 97.1875 C 173.1875 95.875 177.03125 94.90625 180.90625 94.15625 C 181.875 93.96875 182.8125 93.8125 183.78125 93.65625 C 184.75 93.5 184.6875 93.53125 185.15625 93.4375 C 185.625 93.34375 185.59375 93.40625 184.96875 93.4375 C 185.09375 93.4375 185.21875 93.40625 185.3125 93.40625 C 185.5625 93.375 185.84375 93.34375 186.09375 93.3125 C 187.90625 93.09375 189.71875 92.96875 191.53125 92.90625 C 193.34375 92.84375 194.96875 92.84375 196.65625 92.9375 C 198.34375 93.03125 198.34375 93.03125 199.15625 93.125 C 199.96875 93.21875 199.90625 93.21875 200.28125 93.25 C 200.65625 93.28125 200.6875 93.3125 200.90625 93.34375 C 200.0625 93.25 200.90625 93.34375 201.09375 93.34375 C 204.1875 93.8125 207.25 94.5625 210.1875 95.65625 C 213.125 96.75 210.84375 95.90625 211.1875 96.03125 C 211.53125 96.15625 211.5625 96.1875 211.71875 96.25 C 210.9375 95.9375 211.6875 96.25 211.875 96.3125 C 212.5625 96.625 213.25 96.9375 213.9375 97.28125 C 215.28125 97.96875 216.59375 98.71875 217.875 99.5625 C 219.15625 100.40625 219.09375 100.40625 219.6875 100.84375 C 220.28125 101.28125 220 101.09375 220.15625 101.1875 C 220.3125 101.28125 220.5 101.46875 219.96875 101.03125 C 220.03125 101.09375 220.125 101.15625 220.1875 101.21875 C 220.5 101.46875 220.8125 101.71875 221.09375 101.96875 C 222.28125 102.9375 223.40625 104 224.46875 105.09375 C 225.53125 106.1875 226.625 107.4375 227.59375 108.6875 C 228.5625 109.9375 227.71875 108.84375 227.78125 108.9375 C 227.96875 109.1875 227.40625 108.4375 227.6875 108.8125 C 227.96875 109.1875 227.90625 109.125 228.03125 109.25 C 228.28125 109.59375 228.53125 109.9375 228.78125 110.28125 C 229.25 110.96875 229.71875 111.65625 230.1875 112.34375 C 231.125 113.78125 231.96875 115.28125 232.78125 116.8125 C 233.59375 118.34375 233.5625 118.34375 233.9375 119.15625 C 234.3125 119.96875 234.3125 119.96875 234.5 120.34375 C 234.6875 120.71875 234.65625 120.71875 234.75 120.9375 C 234.84375 121.15625 235.1875 122 234.90625 121.28125 C 235.59375 123.03125 236.28125 124.75 236.875 126.53125 C 237.5625 128.5625 238.1875 130.625 238.75 132.71875 C 239.4375 135.28125 240 137.875 240.40625 140.46875 C 240.8125 143.0625 240.59375 141.71875 240.6875 142.375 C 240.78125 143.03125 240.625 141.8125 240.6875 142.4375 C 240.75 143.0625 240.71875 142.71875 240.75 142.84375 C 240.78125 143.21875 240.84375 143.5625 240.875 143.9375 C 241.03125 145.25 241.125 146.53125 241.21875 147.84375 C 241.5625 153.03125 241.4375 158.25 240.96875 163.4375 C 240.5 168.625 240.71875 166.0625 240.5625 167.375 C 240.40625 168.6875 240.40625 168.59375 240.34375 169.1875 C 240.40625 168.625 240.34375 169.28125 240.34375 169.375 C 240.34375 169.5 240.3125 169.65625 240.28125 169.78125 C 240.21875 170.15625 240.1875 170.53125 240.125 170.875 C 239.75 173.46875 239.28125 176.03125 238.78125 178.59375 C 238.28125 181.15625 237.71875 183.65625 237.125 186.15625 C 236.53125 188.65625 237.5 188.75 238.75 189.03125 C 240 189.3125 241.3125 188.65625 241.625 187.40625 C 244.125 176.90625 245.96875 166.15625 246.125 155.3125 C 246.28125 144.96875 244.65625 134.75 241.3125 124.9375 C 238.90625 117.875 235.5625 111.15625 230.90625 105.28125 C 226.90625 100.25 221.84375 96 216.09375 93.09375 C 210 90.0625 203.34375 88.53125 196.5625 88.1875 C 188.84375 87.8125 181.0625 89 173.59375 90.96875 C 166.125 92.9375 158.375 96.3125 151.875 101 C 145.40625 105.6875 139.90625 111.625 136.0625 118.65625 C 132.21875 125.6875 132.5 126.21875 131.40625 130.21875 C 130.3125 134.21875 128.96875 140.8125 128.375 146.21875 C 127.3125 156.375 128.15625 166.5625 130.09375 176.5625 C 132.03125 186.5625 131.15625 181.65625 131.78125 184.1875 C 132.0625 185.375 133.5 186.21875 134.65625 185.8125 C 135.8125 185.40625 136.59375 184.21875 136.28125 182.9375 Z M 136.28125 182.96875 " fill-opacity="1" fill-rule="nonzero"/><path fill="#231f20" d="M 237.1875 188.8125 C 238.34375 194 239.46875 199.21875 240.40625 204.4375 C 240.625 205.75 240.84375 207.03125 241.0625 208.34375 C 241.28125 209.65625 241.25 209.5625 241.34375 210.1875 C 241.4375 210.8125 241.4375 210.875 241.5 211.21875 C 241.5 211.125 241.4375 210.75 241.5 211.21875 C 241.5625 211.6875 241.5625 211.625 241.59375 211.84375 C 241.9375 214.46875 242.1875 217.125 242.34375 219.78125 C 242.5 222.4375 242.53125 225.0625 242.4375 227.6875 C 242.34375 230.3125 242.3125 230.28125 242.21875 231.5625 C 242.125 232.84375 242.09375 232.78125 242.03125 233.40625 C 241.96875 234.03125 241.9375 234.09375 241.90625 234.4375 C 241.875 234.78125 241.84375 234.90625 241.90625 234.4375 C 241.90625 234.65625 241.84375 234.84375 241.8125 235.0625 C 241.125 239.8125 239.875 244.46875 238.0625 248.90625 C 236.25 253.34375 238.28125 248.375 238.0625 248.84375 C 237.84375 249.3125 237.96875 249.03125 237.9375 249.125 C 237.84375 249.375 237.71875 249.59375 237.625 249.84375 C 237.40625 250.3125 237.1875 250.78125 236.96875 251.25 C 236.53125 252.125 236.09375 252.96875 235.59375 253.8125 C 234.625 255.46875 233.59375 257.0625 232.4375 258.59375 C 231.28125 260.125 232.28125 258.78125 232.21875 258.90625 C 231.9375 259.28125 232.28125 258.875 232.25 258.84375 C 232.25 258.84375 231.9375 259.25 231.875 259.3125 C 231.5625 259.6875 231.25 260.09375 230.90625 260.46875 C 230.28125 261.21875 229.625 261.9375 228.9375 262.625 C 227.59375 264 226.1875 265.3125 224.71875 266.5625 C 223.25 267.8125 224.03125 267.125 223.65625 267.40625 C 223.28125 267.6875 223.5 267.53125 223.40625 267.59375 C 223 267.90625 223.71875 267.34375 223.46875 267.5625 C 223.21875 267.78125 223.03125 267.90625 222.8125 268.0625 C 222.03125 268.625 221.25 269.1875 220.4375 269.71875 C 218.8125 270.78125 217.15625 271.78125 215.4375 272.6875 C 213.71875 273.59375 213.65625 273.625 212.75 274.03125 C 211.84375 274.4375 211.90625 274.4375 211.46875 274.625 C 211.03125 274.8125 211.03125 274.8125 210.8125 274.90625 C 210.59375 275 210.5625 275 210.4375 275.0625 C 210.28125 275.125 210.34375 275.09375 210.625 274.96875 C 210.5625 274.96875 210.46875 275.03125 210.40625 275.0625 C 208.53125 275.84375 206.625 276.53125 204.6875 277.15625 C 200.75 278.40625 196.71875 279.28125 192.65625 279.96875 C 188.59375 280.65625 191.65625 280.125 191.15625 280.1875 C 190.65625 280.25 190.75 280.25 190.53125 280.28125 L 190.375 280.28125 C 190.230469 280.324219 190.230469 280.324219 190.375 280.28125 C 190.519531 280.238281 190.519531 280.238281 190.375 280.28125 C 190.3125 280.28125 190.21875 280.28125 190.15625 280.28125 C 189.15625 280.40625 188.15625 280.53125 187.15625 280.625 C 185.28125 280.8125 183.40625 280.90625 181.53125 280.9375 C 179.75 280.9375 177.9375 280.9375 176.15625 280.8125 C 174.375 280.6875 174.375 280.6875 173.5 280.59375 C 172.625 280.5 172.65625 280.5 172.21875 280.4375 C 172.21875 280.4375 172.84375 280.53125 172.4375 280.4375 C 172.03125 280.34375 172.25 280.4375 172.1875 280.40625 C 171.9375 280.375 171.71875 280.34375 171.46875 280.28125 C 168.25 279.78125 165.0625 278.96875 161.96875 277.84375 C 158.875 276.71875 161.28125 277.59375 160.9375 277.4375 C 160.59375 277.28125 160.5625 277.28125 160.375 277.21875 C 160.03125 277.0625 160.5625 277.3125 160.59375 277.3125 C 160.46875 277.25 160.375 277.21875 160.25 277.15625 C 159.53125 276.84375 158.78125 276.5 158.0625 276.15625 C 156.65625 275.46875 155.3125 274.6875 154 273.84375 C 152.6875 273 152.71875 273 152.09375 272.53125 C 151.46875 272.0625 151.5 272.09375 151.21875 271.875 C 150.9375 271.65625 151.375 272 151.40625 272.03125 C 151.3125 271.96875 151.21875 271.875 151.125 271.8125 C 150.96875 271.6875 150.8125 271.5625 150.65625 271.4375 C 149.4375 270.4375 148.28125 269.40625 147.1875 268.28125 C 146.09375 267.15625 144.96875 265.9375 143.96875 264.6875 C 142.96875 263.4375 143.71875 264.375 143.625 264.25 C 143.21875 263.75 143.90625 264.625 143.53125 264.125 C 143.15625 263.625 143.03125 263.4375 142.78125 263.09375 C 142.3125 262.4375 141.84375 261.75 141.375 261.0625 C 139.46875 258.125 137.90625 255 136.5 251.8125 C 135.09375 248.625 136.71875 252.375 136.53125 251.90625 C 136.34375 251.4375 136.46875 251.71875 136.40625 251.625 C 136.3125 251.40625 136.21875 251.1875 136.125 250.96875 C 135.96875 250.53125 135.78125 250.125 135.625 249.6875 C 135.28125 248.78125 134.96875 247.875 134.65625 246.96875 C 134.03125 245.09375 133.46875 243.15625 132.96875 241.25 C 132.46875 239.34375 131.6875 235.96875 131.25 233.28125 C 130.8125 230.59375 131.15625 232.59375 131.09375 232.21875 C 131.03125 231.84375 131.0625 231.9375 131.03125 231.8125 C 130.9375 231.125 131.0625 232.125 131.03125 231.6875 C 130.9375 231 130.875 230.28125 130.78125 229.59375 C 130.65625 228.25 130.53125 226.9375 130.46875 225.59375 C 130.1875 220.21875 130.40625 214.8125 131.03125 209.46875 C 131.65625 204.125 131.1875 208.21875 131.25 207.5625 C 131.1875 208.125 131.25 207.40625 131.25 207.34375 C 131.25 207.21875 131.28125 207.0625 131.3125 206.9375 C 131.375 206.59375 131.40625 206.25 131.46875 205.875 C 131.6875 204.5 131.90625 203.15625 132.15625 201.78125 C 132.65625 199.09375 133.21875 196.40625 133.875 193.75 C 134.53125 191.09375 135.15625 188.625 135.875 186.09375 C 136.59375 183.5625 135.46875 183.5 134.25 183.21875 C 133.03125 182.9375 131.71875 183.59375 131.375 184.84375 C 128.34375 195.59375 126.0625 206.65625 125.71875 217.84375 C 125.375 228.28125 126.90625 238.71875 130.3125 248.59375 C 132.71875 255.65625 136.125 262.34375 140.8125 268.15625 C 145.5 273.96875 150.15625 277.5 156.03125 280.375 C 162.375 283.5 169.3125 285.09375 176.375 285.53125 C 183.4375 285.96875 192.5625 285.03125 200.375 283.21875 C 208.1875 281.40625 216.3125 278.1875 223.1875 273.53125 C 229.90625 269 235.71875 263.09375 239.75 256.03125 C 243.78125 248.96875 246.78125 237.53125 247.125 227.71875 C 247.5 216.8125 245.625 205.90625 243.40625 195.28125 C 242.875 192.71875 242.3125 190.15625 241.75 187.625 C 241.1875 185.09375 240.03125 185.625 238.875 186 C 237.71875 186.375 236.96875 187.59375 237.25 188.875 Z M 237.1875 188.8125 " fill-opacity="1" fill-rule="nonzero"/><path fill="#231f20" d="M 166.71875 140 C 174.84375 135.28125 182.96875 130.46875 191.5 126.4375 C 200.03125 122.40625 193.59375 125.46875 194.625 125 C 195.65625 124.53125 195.15625 124.78125 195.40625 124.65625 C 195.65625 124.53125 195.65625 124.53125 195.8125 124.5 C 195.96875 124.46875 196.21875 124.3125 195.84375 124.5 C 196.375 124.28125 196.90625 124.0625 197.4375 123.84375 C 199.59375 122.96875 201.75 122.1875 203.9375 121.46875 C 206.125 120.75 208.34375 120.15625 210.5625 119.625 C 212.78125 119.09375 212.75 119.15625 213.875 118.9375 C 215 118.71875 214.96875 118.75 215.53125 118.65625 C 216.09375 118.5625 216.09375 118.5625 216.375 118.53125 C 216.65625 118.5 216.84375 118.46875 216.375 118.53125 C 216.5625 118.53125 216.71875 118.5 216.90625 118.46875 C 221.03125 117.96875 225.21875 117.84375 229.34375 118.21875 C 233.46875 118.59375 230.28125 118.3125 230.71875 118.375 C 231.15625 118.4375 230.96875 118.40625 231.0625 118.40625 C 231 118.40625 230.53125 118.34375 230.96875 118.40625 C 231.40625 118.46875 231.5 118.46875 231.75 118.53125 C 232.65625 118.6875 233.59375 118.84375 234.5 119.03125 C 236.34375 119.4375 238.1875 119.9375 239.96875 120.53125 C 241.75 121.125 241.71875 121.125 242.59375 121.46875 C 243.46875 121.8125 243.46875 121.8125 243.875 122 C 243.40625 121.78125 243.9375 122.03125 244.125 122.09375 C 244.375 122.1875 244.59375 122.3125 244.84375 122.40625 C 246.5625 123.1875 248.25 124.0625 249.90625 125.03125 C 251.5625 126 253.09375 127 254.59375 128.125 C 256.09375 129.25 255.34375 128.6875 255.71875 128.96875 C 255.65625 128.9375 255.34375 128.65625 255.65625 128.9375 C 255.96875 129.21875 255.84375 129.09375 255.9375 129.15625 C 256.15625 129.3125 256.34375 129.5 256.5625 129.65625 C 257.28125 130.25 258 130.875 258.6875 131.5 C 260.09375 132.78125 261.46875 134.125 262.75 135.5625 C 264.03125 137 264 136.96875 264.59375 137.71875 C 265.1875 138.46875 264.875 138.09375 265.03125 138.28125 C 265.1875 138.46875 265.1875 138.46875 265.25 138.5625 C 264.96875 138.15625 265.125 138.40625 265.21875 138.5 C 265.53125 138.90625 265.8125 139.3125 266.125 139.71875 C 268.375 142.8125 270.25 146.15625 271.78125 149.6875 C 271.96875 150.09375 271.78125 149.6875 271.78125 149.625 C 271.84375 149.71875 271.875 149.84375 271.90625 149.96875 C 272 150.1875 272.09375 150.40625 272.1875 150.625 C 272.375 151.09375 272.5625 151.5625 272.71875 152.0625 C 273.09375 153.125 273.46875 154.1875 273.78125 155.25 C 274.46875 157.53125 274.96875 159.875 275.3125 162.21875 C 275.3125 162.375 275.34375 162.5 275.375 162.65625 C 275.375 162.5625 275.3125 162.21875 275.375 162.6875 C 275.4375 163.15625 275.4375 163.28125 275.46875 163.5625 C 275.53125 164.15625 275.59375 164.71875 275.625 165.3125 C 275.71875 166.53125 275.75 167.75 275.75 168.9375 C 275.75 170.125 275.6875 171.375 275.625 172.59375 C 275.5625 173.8125 275.53125 173.6875 275.46875 174.25 C 275.40625 174.8125 275.40625 174.84375 275.375 175.125 C 275.34375 175.40625 275.375 175.09375 275.375 175.0625 C 275.375 175.28125 275.3125 175.5 275.28125 175.71875 C 274.9375 178.0625 274.40625 180.375 273.6875 182.625 C 272.96875 184.875 273 184.6875 272.59375 185.6875 C 272.1875 186.6875 272.40625 186.125 272.3125 186.34375 C 272.21875 186.5625 272.21875 186.5625 272.1875 186.6875 C 272.09375 186.9375 272.25 186.5625 272.25 186.53125 C 272.15625 187 271.8125 187.53125 271.59375 188 C 270.0625 191.375 268.1875 194.59375 266.03125 197.59375 C 263.875 200.59375 265.53125 198.28125 265.28125 198.625 C 265.03125 198.96875 265 199 264.875 199.15625 C 264.75 199.3125 264.75 199.34375 264.65625 199.4375 C 264.3125 199.90625 264.96875 199.03125 264.625 199.5 C 264.0625 200.21875 263.5 200.90625 262.90625 201.59375 C 261.71875 202.96875 260.5 204.3125 259.21875 205.625 C 257.9375 206.9375 256.59375 208.15625 255.21875 209.375 C 253.84375 210.59375 253.84375 210.5625 253.15625 211.125 C 252.46875 211.6875 252.46875 211.6875 252.09375 211.96875 C 251.71875 212.25 251.78125 212.21875 251.625 212.34375 C 251.46875 212.46875 251.4375 212.46875 251.34375 212.5625 C 251.125 212.75 251.6875 212.28125 251.34375 212.5625 C 245.4375 217.0625 239.0625 220.90625 232.5 224.375 C 225.96875 227.8125 219.25 230.875 212.53125 233.90625 C 210.9375 234.625 209.34375 235.34375 207.75 236.0625 C 206.15625 236.78125 206.28125 238.28125 206.90625 239.28125 C 207.53125 240.28125 208.90625 240.65625 210.125 240.125 C 216.90625 237.03125 223.71875 234.03125 230.40625 230.6875 C 237.15625 227.3125 243.8125 223.65625 250 219.3125 C 256.21875 214.96875 262.03125 210.03125 266.84375 204.1875 C 271.9375 198 276.15625 190.8125 278.40625 183.0625 C 280.65625 175.3125 281 163.03125 278.0625 153.53125 C 275.125 144.03125 271.46875 138.34375 265.90625 132.1875 C 260.625 126.375 254.09375 121.59375 246.9375 118.375 C 239.78125 115.15625 231.75 113.28125 223.71875 113.4375 C 215.6875 113.59375 204.9375 115.875 196.15625 119.4375 C 187.15625 123.0625 178.6875 127.75 170.3125 132.59375 C 161.9375 137.4375 166.3125 134.90625 164.3125 136.0625 C 162.3125 137.21875 162.78125 138.21875 163.46875 139.28125 C 164.15625 140.34375 165.53125 140.78125 166.6875 140.125 Z M 166.71875 140 " fill-opacity="1" fill-rule="nonzero"/><path fill="#231f20" d="M 206.5625 236.71875 C 198.65625 241.78125 190.8125 246.96875 182.5625 251.46875 C 180.53125 252.5625 178.46875 253.625 176.375 254.625 C 175.3125 255.125 174.28125 255.625 173.1875 256.09375 C 172.09375 256.5625 172.6875 256.3125 172.40625 256.4375 C 172.125 256.5625 171.9375 256.625 172.1875 256.53125 C 172.4375 256.4375 172.03125 256.59375 171.96875 256.625 C 171.40625 256.84375 170.875 257.0625 170.3125 257.28125 C 166.125 258.9375 161.78125 260.28125 157.34375 261.15625 C 152.90625 262.03125 156.28125 261.34375 155.71875 261.4375 C 155.15625 261.53125 155.1875 261.53125 154.90625 261.5625 C 154.625 261.59375 154.71875 261.5625 154.59375 261.59375 C 154.46875 261.625 153.84375 261.6875 154.40625 261.59375 C 153.3125 261.75 152.21875 261.84375 151.15625 261.9375 C 148.875 262.09375 146.625 262.125 144.34375 261.96875 C 142.0625 261.8125 143.21875 261.90625 142.6875 261.84375 C 142.15625 261.78125 142.125 261.78125 141.84375 261.75 C 141.5625 261.71875 141.5625 261.71875 141.4375 261.6875 C 141.3125 261.65625 140.8125 261.625 141.125 261.65625 C 141.4375 261.6875 140.96875 261.65625 140.90625 261.65625 C 140.78125 261.65625 140.625 261.625 140.5 261.59375 C 140.21875 261.5625 139.9375 261.5 139.65625 261.46875 C 139.125 261.375 138.5625 261.28125 138.03125 261.15625 C 136.09375 260.78125 134.1875 260.25 132.3125 259.625 C 130.4375 259 130.5 259 129.625 258.625 C 128.75 258.25 129.1875 258.4375 128.96875 258.34375 C 128.5625 258.1875 128.96875 258.34375 129.03125 258.34375 C 128.90625 258.28125 128.8125 258.25 128.6875 258.1875 C 128.21875 257.96875 127.75 257.78125 127.3125 257.5625 C 125.5625 256.71875 123.84375 255.78125 122.15625 254.78125 C 120.46875 253.78125 120.4375 253.6875 119.59375 253.09375 C 118.75 252.5 118.84375 252.5625 118.5 252.3125 C 118.15625 252.0625 118.125 252.03125 117.90625 251.875 C 117.6875 251.71875 117.15625 251.3125 117.59375 251.625 C 116 250.375 114.5 249.09375 113.03125 247.6875 C 111.5625 246.28125 110.1875 244.84375 108.875 243.3125 C 107.5625 241.78125 108.28125 242.625 108 242.25 C 107.71875 241.875 107.6875 241.875 107.53125 241.6875 C 107.375 241.5 106.9375 240.9375 107.28125 241.375 C 106.65625 240.5625 106.0625 239.75 105.5 238.9375 C 103.21875 235.625 101.28125 232.09375 99.6875 228.40625 C 99.90625 228.90625 99.625 228.25 99.5625 228.125 C 99.46875 227.90625 99.375 227.65625 99.28125 227.4375 C 99.09375 226.9375 98.90625 226.46875 98.71875 225.96875 C 98.375 225.03125 98.0625 224.0625 97.75 223.09375 C 97.0625 220.78125 96.46875 218.4375 96.0625 216.0625 C 95.65625 213.6875 95.96875 215.53125 95.9375 215.28125 C 95.90625 215.03125 95.90625 215 95.875 214.84375 C 95.84375 214.6875 95.8125 214.3125 95.84375 214.59375 C 95.875 214.875 95.84375 214.40625 95.8125 214.34375 C 95.8125 214.1875 95.78125 214.03125 95.75 213.90625 C 95.71875 213.5625 95.6875 213.25 95.65625 212.90625 C 95.53125 211.6875 95.46875 210.4375 95.40625 209.1875 C 95.34375 206.75 95.40625 204.3125 95.6875 201.875 C 95.96875 199.4375 95.75 201.28125 95.78125 200.96875 C 95.71875 201.375 95.78125 200.96875 95.78125 200.90625 C 95.78125 200.75 95.8125 200.59375 95.84375 200.46875 C 95.9375 199.84375 96.0625 199.21875 96.15625 198.5625 C 96.375 197.34375 96.65625 196.125 97 194.9375 C 97.34375 193.75 97.6875 192.5625 98.125 191.40625 C 98.5625 190.25 98.46875 190.5 98.65625 190.03125 C 98.84375 189.5625 98.8125 189.625 98.90625 189.4375 C 99 189.25 99 189.21875 99.03125 189.09375 C 98.8125 189.65625 99.03125 189.09375 99.09375 189 C 100.625 185.46875 102.5 182.125 104.6875 178.96875 C 106.875 175.8125 105.78125 177.4375 106.34375 176.6875 C 106.90625 175.9375 106.59375 176.34375 106.28125 176.75 C 106.34375 176.65625 106.40625 176.5625 106.5 176.46875 C 106.65625 176.28125 106.78125 176.125 106.9375 175.9375 C 107.21875 175.59375 107.5 175.21875 107.8125 174.875 C 109.03125 173.4375 110.28125 172.0625 111.59375 170.71875 C 112.90625 169.375 114.28125 168.125 115.71875 166.875 C 117.15625 165.625 117.09375 165.6875 117.8125 165.125 C 118.53125 164.5625 118.53125 164.5625 118.875 164.28125 C 119.21875 164 119.0625 164.125 119.15625 164.0625 C 118.71875 164.375 119 164.1875 119.09375 164.125 C 119.3125 163.96875 119.5 163.8125 119.71875 163.65625 C 125.78125 159.0625 132.40625 155.28125 139.21875 151.875 C 142.625 150.15625 146.09375 148.5625 149.5625 147.03125 C 153.03125 145.5 153 145.53125 154.71875 144.78125 C 156.4375 144.03125 156.46875 144.03125 157.3125 143.65625 C 158.15625 143.28125 158.15625 143.3125 158.5625 143.125 C 158.96875 142.9375 158.96875 142.9375 159.1875 142.875 C 159.5 142.75 158.78125 143.03125 159.09375 142.90625 C 159.40625 142.78125 159.34375 142.78125 159.5 142.75 C 161.28125 142 163.09375 141.25 164.875 140.5 C 166.65625 139.75 166.34375 138.25 165.71875 137.28125 C 165.09375 136.3125 163.71875 135.9375 162.5 136.4375 C 161.28125 136.9375 162.09375 136.625 161.875 136.6875 C 162.4375 136.4375 161.8125 136.6875 161.65625 136.78125 C 161.1875 136.96875 160.71875 137.1875 160.25 137.375 C 159.40625 137.75 158.53125 138.09375 157.6875 138.46875 C 155.78125 139.28125 153.90625 140.0625 152 140.875 C 148.4375 142.40625 144.875 143.96875 141.375 145.625 C 134.40625 148.90625 127.5625 152.53125 121.15625 156.875 C 114.71875 161.25 108.71875 166.3125 103.8125 172.375 C 98.90625 178.4375 94.3125 186.4375 92.25 194.59375 C 89.75 204.5625 90.28125 215.125 93.34375 224.875 C 95.875 232.96875 100.15625 240.4375 105.6875 246.875 C 111.03125 253.09375 117.6875 258.3125 125.125 261.75 C 132.5625 265.1875 142.125 267.21875 151.03125 266.59375 C 160.5625 265.9375 169.6875 262.875 178.28125 258.8125 C 186.90625 254.71875 195.03125 249.625 203.0625 244.46875 C 205 243.21875 206.90625 241.96875 208.84375 240.75 C 210.78125 239.53125 210.375 238.625 209.6875 237.53125 C 209 236.4375 207.59375 235.96875 206.46875 236.6875 Z M 206.5625 236.71875 " fill-opacity="1" fill-rule="nonzero"/><path fill="#231f20" d="M 216.0625 144.84375 C 223.3125 148.84375 230.59375 152.8125 237.5625 157.28125 C 239.3125 158.40625 241.03125 159.5625 242.71875 160.75 C 244.40625 161.9375 244.40625 161.9375 245.21875 162.5625 C 246.03125 163.1875 245.96875 163.125 246.34375 163.40625 C 246.71875 163.6875 247 163.90625 246.625 163.59375 C 246.875 163.78125 247.125 163.96875 247.34375 164.15625 C 250.5 166.65625 253.53125 169.34375 256.3125 172.28125 C 259.09375 175.21875 259 175.21875 260.25 176.78125 C 261.5 178.34375 260.5625 177.15625 260.71875 177.375 C 260.375 176.9375 260.84375 177.53125 260.90625 177.625 C 261.21875 178.03125 261.53125 178.46875 261.84375 178.90625 C 262.4375 179.75 263 180.59375 263.5625 181.4375 C 264.59375 183.03125 265.5625 184.6875 266.40625 186.40625 C 267.25 188.125 267.25 188.125 267.625 189 C 268 189.875 267.71875 189.21875 267.75 189.3125 C 267.75 189.25 267.5625 188.84375 267.71875 189.21875 C 267.875 189.59375 267.90625 189.65625 267.96875 189.875 C 268.15625 190.34375 268.3125 190.78125 268.5 191.25 C 269.15625 193.03125 269.6875 194.8125 270.125 196.65625 C 270.5625 198.5 270.5625 198.53125 270.71875 199.46875 C 270.875 200.40625 270.875 200.375 270.96875 200.84375 C 271.0625 201.3125 271.03125 201.3125 271.0625 201.53125 C 271.09375 201.75 271.21875 202.53125 271.125 201.84375 C 271.75 205.5625 271.71875 209.5 271.4375 213.25 C 271.375 214.21875 271.28125 215.15625 271.15625 216.125 C 271.03125 217.09375 271.125 216.34375 271.125 216.46875 C 271.125 216.40625 271.1875 215.9375 271.125 216.375 C 271.0625 216.8125 271.0625 216.84375 271.03125 217.0625 C 270.96875 217.53125 270.875 218 270.8125 218.4375 C 270.46875 220.34375 270.03125 222.21875 269.5 224.0625 C 268.96875 225.90625 268.3125 227.75 267.59375 229.53125 C 266.875 231.3125 267.28125 230.34375 267.5 229.78125 C 267.40625 230 267.3125 230.21875 267.21875 230.4375 C 267.03125 230.875 266.84375 231.28125 266.625 231.71875 C 266.21875 232.59375 265.78125 233.46875 265.3125 234.3125 C 264.375 236.03125 263.34375 237.6875 262.25 239.28125 C 261.15625 240.875 261.75 240 261.46875 240.375 C 261.1875 240.75 261.1875 240.75 261.03125 240.9375 C 260.78125 241.28125 261.03125 240.9375 261.0625 240.875 C 260.96875 241.03125 260.84375 241.15625 260.71875 241.28125 C 260.125 242.03125 259.5 242.8125 258.84375 243.53125 C 257.5 245.09375 256.03125 246.5625 254.5 247.90625 C 252.96875 249.25 253 249.21875 252.1875 249.84375 C 251.375 250.46875 252 250 251.90625 250.0625 C 252.28125 249.78125 252 249.96875 251.90625 250.0625 C 251.71875 250.21875 251.5 250.375 251.3125 250.5 C 250.84375 250.84375 250.40625 251.15625 249.9375 251.46875 C 248.25 252.625 246.5 253.6875 244.6875 254.625 C 242.875 255.5625 242.84375 255.5625 241.875 255.96875 C 240.90625 256.375 241.0625 256.3125 241.5625 256.09375 C 241.34375 256.1875 241.09375 256.28125 240.875 256.375 C 240.40625 256.5625 239.9375 256.75 239.46875 256.90625 C 237.5 257.625 235.5 258.21875 233.46875 258.65625 C 231.4375 259.09375 231.3125 259.0625 230.21875 259.21875 C 229.125 259.375 229.46875 259.3125 229.96875 259.25 C 229.71875 259.28125 229.4375 259.3125 229.1875 259.34375 C 228.59375 259.40625 228 259.46875 227.4375 259.53125 C 223.28125 259.875 219.09375 259.78125 214.96875 259.28125 C 214.8125 259.28125 214.125 259.1875 214.65625 259.25 C 214.40625 259.25 214.15625 259.1875 213.90625 259.15625 C 213.34375 259.0625 212.78125 258.96875 212.21875 258.875 C 211.21875 258.6875 210.25 258.5 209.25 258.28125 C 207.21875 257.84375 205.21875 257.3125 203.21875 256.6875 C 201.21875 256.0625 199.3125 255.40625 197.40625 254.65625 C 195.5 253.90625 196.46875 254.28125 196 254.09375 C 195.53125 253.90625 195.53125 253.90625 195.28125 253.8125 C 195.03125 253.71875 194.84375 253.625 195.125 253.75 C 195.40625 253.875 194.9375 253.65625 194.875 253.65625 C 193.90625 253.25 192.9375 252.8125 192 252.375 C 188.1875 250.59375 184.46875 248.625 180.84375 246.5 C 173.59375 242.28125 166.65625 237.53125 159.78125 232.75 C 158.15625 231.625 156.5 230.46875 154.875 229.34375 C 153.25 228.21875 152.21875 229.125 151.65625 230.1875 C 151.09375 231.25 151.40625 232.65625 152.5 233.40625 C 159.46875 238.25 166.40625 243.125 173.59375 247.625 C 180.96875 252.21875 188.65625 256.375 196.78125 259.46875 C 204.78125 262.53125 213.3125 264.40625 221.90625 264.46875 C 226.375 264.5 230.9375 264.09375 235.28125 263.0625 C 239.53125 262.0625 243.65625 260.46875 247.5 258.4375 C 255.0625 254.4375 261.46875 248.53125 266.34375 241.5 C 270.90625 234.9375 274 227.28125 275.375 219.40625 C 276.78125 211.46875 276.59375 203.3125 274.71875 195.46875 C 272.78125 187.46875 268.9375 180.21875 263.875 173.75 C 258.6875 167.15625 252.25 161.65625 245.40625 156.8125 C 238.53125 151.9375 231.1875 147.75 223.8125 143.65625 C 216.4375 139.5625 220.21875 141.6875 218.4375 140.6875 C 216.65625 139.6875 215.84375 140.40625 215.21875 141.53125 C 214.59375 142.65625 214.90625 144.09375 216.0625 144.75 Z M 216.0625 144.84375 " fill-opacity="1" fill-rule="nonzero"/><path fill="#231f20" d="M 153.59375 228.75 C 146.46875 225.21875 139.28125 221.75 132.3125 217.84375 C 128.84375 215.90625 125.40625 213.84375 122.125 211.625 C 120.5 210.53125 118.90625 209.375 117.34375 208.1875 C 115.78125 207 116.65625 207.6875 117.125 208.03125 C 116.9375 207.90625 116.75 207.75 116.59375 207.59375 C 116.1875 207.28125 115.78125 206.9375 115.375 206.625 C 114.625 206 113.875 205.375 113.15625 204.75 C 110.3125 202.25 107.625 199.5 105.25 196.53125 C 102.875 193.5625 104.9375 196.15625 104.78125 195.9375 C 105.09375 196.375 104.78125 195.90625 104.625 195.75 C 104.34375 195.375 104.0625 194.96875 103.78125 194.59375 C 103.21875 193.8125 102.6875 193.03125 102.1875 192.21875 C 101.15625 190.59375 100.21875 188.90625 99.375 187.15625 C 98.53125 185.40625 98.96875 186.3125 98.78125 185.90625 C 98.59375 185.5 98.5625 185.4375 98.46875 185.1875 C 98.375 184.9375 98.3125 184.90625 98.34375 184.875 C 98.3125 185.03125 98.5 185.25 98.34375 184.875 C 97.96875 183.9375 97.59375 183 97.28125 182.0625 C 96.625 180.125 96.09375 178.15625 95.65625 176.15625 C 95.21875 174.15625 95.28125 174.15625 95.125 173.15625 C 94.96875 172.15625 95.15625 173.5 95.09375 172.875 C 95.03125 172.25 95.03125 172.40625 95 172.15625 C 94.9375 171.65625 94.90625 171.125 94.84375 170.625 C 94.6875 168.59375 94.625 166.53125 94.6875 164.46875 C 94.75 162.40625 94.78125 162.40625 94.875 161.375 C 94.96875 160.34375 94.96875 160.34375 95.03125 159.84375 C 95.09375 159.34375 95.09375 159.375 95.125 159.125 C 95.15625 158.78125 95.0625 159.5625 95.125 159.21875 C 95.1875 158.875 95.15625 158.90625 95.1875 158.78125 C 95.5 156.71875 95.90625 154.6875 96.40625 152.6875 C 96.90625 150.6875 97.53125 148.6875 98.28125 146.71875 C 99.03125 144.75 98.625 145.8125 98.8125 145.34375 C 99 144.875 99 144.875 99.09375 144.65625 C 99.1875 144.4375 99.34375 144.09375 99.1875 144.4375 C 99.03125 144.78125 99.25 144.28125 99.28125 144.21875 C 99.6875 143.25 100.125 142.3125 100.59375 141.375 C 101.53125 139.5 102.5625 137.6875 103.65625 135.90625 C 104.75 134.125 104.8125 134.15625 105.40625 133.3125 C 106 132.46875 105.96875 132.5 106.28125 132.125 C 106.59375 131.75 106.78125 131.46875 106.46875 131.875 C 106.65625 131.625 106.84375 131.375 107.03125 131.15625 C 109.75 127.78125 112.84375 124.6875 116.25 122 C 119.65625 119.3125 116.59375 121.71875 116.25 122 C 116.34375 121.90625 116.46875 121.84375 116.5625 121.75 C 116.78125 121.59375 116.96875 121.4375 117.1875 121.28125 C 117.65625 120.9375 118.125 120.59375 118.625 120.25 C 119.53125 119.625 120.46875 119.03125 121.4375 118.46875 C 123.34375 117.34375 125.3125 116.3125 127.34375 115.4375 C 129.375 114.5625 127.59375 115.34375 127.71875 115.28125 C 127.625 115.3125 127.28125 115.46875 127.71875 115.28125 C 128.15625 115.09375 128.1875 115.09375 128.4375 115 C 129 114.78125 129.53125 114.5625 130.09375 114.375 C 131.125 114 132.125 113.6875 133.1875 113.40625 C 134.25 113.125 135.34375 112.84375 136.4375 112.625 C 137.53125 112.40625 137.5625 112.40625 138.125 112.3125 C 138.6875 112.21875 138.65625 112.21875 138.9375 112.1875 C 139.21875 112.15625 139.21875 112.15625 139.34375 112.125 C 139.8125 112.0625 139.125 112.125 139.40625 112.125 C 143.8125 111.59375 148.21875 111.5 152.625 111.9375 C 157.03125 112.375 153.625 112.03125 154.15625 112.09375 C 154.6875 112.15625 155.15625 112.21875 154.5625 112.15625 C 154.84375 112.15625 155.125 112.25 155.40625 112.28125 C 156.46875 112.4375 157.53125 112.625 158.59375 112.84375 C 160.6875 113.28125 162.78125 113.8125 164.84375 114.40625 C 166.90625 115 168.875 115.71875 170.875 116.46875 C 172.875 117.21875 171.875 116.875 172.375 117.0625 C 172.875 117.25 172.84375 117.25 173.09375 117.34375 C 173.34375 117.4375 172.75 117.1875 173.0625 117.34375 C 173.375 117.5 173.34375 117.46875 173.5 117.53125 C 174.5 117.96875 175.5 118.40625 176.46875 118.875 C 180.4375 120.75 184.28125 122.84375 188.03125 125.125 C 195.53125 129.65625 202.65625 134.78125 209.71875 139.96875 C 216.78125 145.15625 213.0625 142.40625 214.71875 143.625 C 216.375 144.84375 217.375 143.8125 217.9375 142.78125 C 218.5 141.75 218.15625 140.34375 217.09375 139.5625 C 209.96875 134.34375 202.90625 129.0625 195.5 124.28125 C 187.90625 119.34375 179.96875 114.9375 171.5 111.71875 C 163.03125 108.5 154.25 106.71875 145.34375 106.96875 C 140.65625 107.09375 135.90625 107.71875 131.40625 109.0625 C 126.90625 110.40625 122.59375 112.3125 118.625 114.75 C 110.90625 119.46875 104.40625 126.09375 99.59375 133.71875 C 95.03125 140.96875 91.9375 149.25 90.71875 157.75 C 89.5 166.28125 90 175.0625 92.78125 183.25 C 95.5625 191.4375 99.84375 197.96875 105.5 203.875 C 111.0625 209.71875 117.65625 214.5 124.53125 218.71875 C 131.46875 222.96875 138.78125 226.625 146.0625 230.25 C 147.8125 231.125 149.53125 231.96875 151.28125 232.84375 C 153.03125 233.71875 153.875 233.1875 154.5 232 C 155.125 230.8125 154.84375 229.375 153.65625 228.78125 Z M 153.59375 228.75 " fill-opacity="1" fill-rule="nonzero"/><path stroke-linecap="butt" transform="matrix(0.0130861, -0.312226, 0.312226, 0.0130861, -9.124996, 367.093716)" fill="none" stroke-linejoin="miter" d="M 769.797163 602.605314 C 769.802153 608.097423 769.519372 613.589082 768.973275 619.066755 C 768.427177 624.544428 767.604227 629.983661 766.5039 635.371965 C 765.404097 640.772757 764.03836 646.097119 762.407737 651.370028 C 760.77659 656.630448 758.878985 661.801948 756.727936 666.896493 C 754.576363 671.97855 752.182264 676.945661 749.520661 681.798875 C 746.871547 686.651565 743.991349 691.363809 740.867577 695.93613 C 737.743806 700.508451 734.388428 704.927836 730.825896 709.18075 C 727.263365 713.433664 723.480668 717.508142 719.51475 721.390122 C 715.536866 725.285116 711.375237 728.975124 707.029863 732.460146 C 702.672523 735.958181 698.167859 739.224682 693.491938 742.285675 C 688.816017 745.346667 683.992249 748.163637 679.034167 750.761038 C 674.076086 753.35844 669.007623 755.710248 663.803802 757.81751 C 658.611945 759.91176 653.322721 761.772382 647.947046 763.361386 C 642.559405 764.963402 637.110293 766.292753 631.600755 767.374418 C 626.078205 768.444117 620.519685 769.252593 614.92467 769.787357 C 609.330179 770.33461 603.723649 770.594615 598.094161 770.605363 C 592.476639 770.603099 586.872578 770.325029 581.270538 769.796655 C 575.680464 769.255268 570.116864 768.450041 564.604193 767.367438 C 559.092046 766.297324 553.643841 764.9618 548.259578 763.360865 C 542.875838 761.77242 537.593507 759.916993 532.388131 757.808122 C 527.195766 755.711217 522.117824 753.359296 517.167315 750.764325 C 512.204317 748.169878 507.381766 745.344347 502.71215 742.287209 C 498.030045 739.230594 493.526377 735.953814 489.176691 732.470404 C 484.826482 728.974506 480.668246 725.282896 476.689494 721.3961 C 472.710741 717.509303 468.936451 713.426272 465.368192 709.184475 C 461.8119 704.929665 458.461639 700.516087 455.341866 695.930207 C 452.210127 691.35734 449.322934 686.649113 446.679764 681.793038 C 444.024105 676.937486 441.626528 671.971029 439.474544 666.894192 C 437.322037 661.804865 435.428659 656.629612 433.79441 651.368432 C 432.160161 646.107252 430.798053 640.772111 429.696122 635.376022 C 428.606679 629.979409 427.77846 624.546826 427.223429 619.06526 C 426.68141 613.595659 426.401138 608.102577 426.395624 602.59798 C 426.402599 597.092859 426.673415 591.614212 427.232002 586.136015 C 427.7781 580.658342 428.60105 575.219109 429.701376 569.830806 C 430.801179 564.430013 432.166392 559.093162 433.79754 553.832743 C 435.428687 548.572323 437.313279 543.388857 439.464852 538.306801 C 441.616425 533.224744 444.023012 528.257109 446.672127 523.404419 C 449.321241 518.551729 452.213928 513.838961 455.337699 509.26664 C 458.46147 504.69432 461.80436 500.275458 465.37938 496.02202 C 468.941912 491.769106 472.712119 487.695152 476.690003 483.800159 C 480.66841 479.917655 484.830039 476.227647 489.17489 472.730135 C 493.520264 469.245113 498.036894 465.965599 502.713338 462.917096 C 507.389259 459.856103 512.200015 457.027168 517.15862 454.442255 C 522.116701 451.844854 527.197653 449.492522 532.388986 447.385784 C 537.592807 445.278522 542.882556 443.430389 548.257707 441.828896 C 553.633382 440.239892 559.081971 438.898051 564.604521 437.828352 C 570.114582 436.759177 575.673103 435.950701 581.267594 435.403448 C 586.862608 434.868684 592.481104 434.595666 598.098626 434.59793 C 603.728638 434.599671 609.332175 434.865252 614.934738 435.406116 C 620.524813 435.947503 626.075924 436.753253 631.60056 437.822843 C 637.11323 438.905446 642.561435 440.24097 647.945175 441.829416 C 653.316949 443.430874 658.611769 445.285777 663.804133 447.382683 C 668.997021 449.492077 674.074964 451.843998 679.037961 454.438445 C 684.000959 457.032892 688.811021 459.858946 693.493126 462.915561 C 698.162742 465.9727 702.678899 469.248957 707.028585 472.732366 C 711.366305 476.228788 715.53703 479.919874 719.515783 483.806671 C 723.482046 487.693991 727.255813 491.764532 730.824595 496.018819 C 734.393377 500.273106 737.743637 504.686683 740.862887 509.260074 C 743.982137 513.833465 746.869853 518.554181 749.525512 523.409733 C 752.180648 528.252796 754.578748 533.231741 756.730732 538.308579 C 758.883239 543.397905 760.776094 548.56067 762.410866 553.834338 C 764.045115 559.095518 765.407223 564.430659 766.496665 569.827272 C 767.598597 575.223361 768.426817 580.655944 768.969359 586.138034 C 769.523866 591.607111 769.804139 597.100193 769.797163 602.605314 Z M 769.797163 602.605314 " stroke="#231f20" stroke-width="15" stroke-opacity="1" stroke-miterlimit="10"/><path fill="#231f20" d="M 137.96875 264.28125 C 139.1875 264.28125 140.375 263.21875 140.3125 261.9375 C 140.25 260.65625 139.28125 259.59375 137.96875 259.59375 C 136.65625 259.59375 135.5625 260.65625 135.625 261.9375 C 135.6875 263.21875 136.65625 264.28125 137.96875 264.28125 Z M 137.96875 264.28125 " fill-opacity="1" fill-rule="nonzero"/><path fill="#231f20" d="M 233.1875 259.25 C 231.9375 261.78125 230.53125 264.21875 228.96875 266.5625 C 227.40625 268.90625 226.34375 270.3125 225 272.15625 C 223.65625 274 222.53125 275.5 221.46875 277.28125 C 220.40625 279.0625 219.25 281.375 218.46875 283.59375 C 217.6875 285.8125 216.75 289.8125 216.3125 293.03125 C 215.875 296.25 216.625 294.3125 217 294.6875 C 217.375 295.0625 218.0625 295.40625 218.65625 295.375 C 219.25 295.34375 219.90625 295.15625 220.3125 294.6875 C 220.71875 294.21875 220.90625 293.6875 221 293.03125 L 221 292.875 C 221 293.09375 220.96875 293.28125 220.9375 293.5 C 221.40625 290.03125 222.1875 286.59375 223.5625 283.34375 L 223.3125 283.90625 C 225.84375 277.96875 230.34375 273.1875 233.78125 267.78125 C 235.0625 265.78125 236.21875 263.71875 237.28125 261.59375 C 238.34375 259.46875 237.625 259 236.4375 258.375 C 235.25 257.75 233.8125 258.03125 233.21875 259.21875 Z M 233.1875 259.25 " fill-opacity="1" fill-rule="nonzero"/><path fill="#231f20" d="M 180.8125 300.9375 C 180.3125 301.09375 180.15625 301.21875 179.75 301.5625 C 179.34375 301.90625 179.25 302.25 179.15625 302.59375 C 179.03125 303.09375 179.0625 303.625 179.28125 304.125 C 179.5 304.625 179.6875 304.8125 180 305.0625 C 180.3125 305.3125 180.9375 305.625 181.40625 305.5625 C 182.21875 305.46875 182.96875 305.1875 183.75 304.9375 C 185.28125 304.4375 186.8125 303.96875 188.3125 303.46875 C 192.875 302 197.4375 300.53125 202 299.0625 C 206.5625 297.59375 210.6875 296.25 215.03125 294.84375 C 219.375 293.4375 217.53125 294.03125 218.78125 293.625 C 220.03125 293.21875 219.28125 293.46875 219.53125 293.375 C 220.21875 293.125 220.8125 292.75 221.21875 292.125 C 222.03125 290.78125 221.34375 288.9375 219.78125 288.5 C 218.21875 288.0625 217.0625 289.0625 216.6875 290.375 C 216.3125 291.6875 216.59375 290.84375 216.5625 291.09375 C 216.125 294.03125 216.125 297 216.09375 299.9375 C 216.09375 302.84375 216.09375 305.71875 216.21875 308.625 C 216.34375 311.53125 216.21875 309.46875 216.28125 309.875 L 218.625 307.53125 L 185.96875 307.53125 C 184.46875 307.53125 182.9375 307.5 181.4375 307.53125 C 179.9375 307.5625 181.40625 307.53125 181.375 307.53125 L 183.71875 309.875 C 183.71875 307.65625 183.71875 305.4375 183.71875 303.25 C 183.71875 301.0625 182.625 300.84375 181.375 300.90625 C 180.125 300.96875 179.03125 301.9375 179.03125 303.25 C 179.03125 305.46875 179.03125 307.6875 179.03125 309.875 C 179.03125 312.0625 180.09375 312.21875 181.375 312.21875 L 214.03125 312.21875 C 215.53125 312.21875 217.0625 312.21875 218.5625 312.21875 C 220.0625 312.21875 218.59375 312.21875 218.625 312.21875 C 219.84375 312.21875 221.03125 311.15625 220.96875 309.875 C 220.75 305.0625 220.6875 300.25 220.875 295.4375 C 220.90625 294.25 220.96875 293.03125 221.125 291.84375 L 221.03125 292.46875 C 221.0625 292.15625 221.09375 291.8125 221.21875 291.5 L 220.96875 292.0625 C 220.78125 292.34375 220.5625 292.5625 220.28125 292.75 L 219.09375 293.0625 C 218.875 293.0625 218.6875 293 218.46875 292.96875 C 218.125 292.78125 217.78125 292.5625 217.4375 292.375 C 217.25 292.0625 217.03125 291.71875 216.84375 291.375 C 216.84375 291.1875 216.78125 291 216.75 290.78125 C 216.75 290.59375 216.8125 290.40625 216.84375 290.1875 C 216.9375 290.03125 217 289.84375 217.09375 289.65625 C 217.21875 289.4375 217.375 289.28125 217.5625 289.125 C 217.78125 288.96875 217.8125 288.9375 217.65625 289.03125 L 218.21875 288.78125 C 216.875 289.3125 215.4375 289.71875 214.0625 290.15625 C 211.0625 291.125 208.0625 292.09375 205.03125 293.09375 C 201.46875 294.25 197.9375 295.375 194.375 296.53125 C 191.3125 297.53125 188.25 298.5 185.15625 299.5 C 182.0625 300.5 182.15625 300.40625 180.6875 300.9375 C 179.21875 301.46875 180.625 300.9375 180.625 300.9375 L 181.25 300.84375 C 181.8125 302.1875 182.34375 303.5 182.90625 304.84375 L 182.4375 305.21875 L 181.875 305.46875 C 183.03125 305.09375 183.90625 303.84375 183.5 302.59375 C 183.09375 301.34375 181.875 300.53125 180.625 300.96875 Z M 180.8125 300.9375 " fill-opacity="1" fill-rule="nonzero"/><path fill="#231f20" d="M 209.40625 323.59375 C 210.625 322.21875 211.875 320.875 213.09375 319.5 C 215.0625 317.3125 217.03125 315.15625 218.96875 312.96875 C 220.90625 310.78125 219.875 311.96875 220.3125 311.46875 C 221.125 310.5625 221.28125 309.03125 220.3125 308.15625 C 219.34375 307.28125 217.875 307.1875 217 308.15625 C 216.125 309.125 214.53125 310.875 213.3125 312.25 C 211.34375 314.4375 209.375 316.59375 207.4375 318.78125 C 205.5 320.96875 206.53125 319.78125 206.09375 320.28125 C 205.28125 321.1875 205.125 322.71875 206.09375 323.59375 C 207.0625 324.46875 208.53125 324.5625 209.40625 323.59375 Z M 209.40625 323.59375 " fill-opacity="1" fill-rule="nonzero"/></svg>